<?xml version="1.0" encoding="UTF-8"?>
<svg version="1.1" xmlns="http://www.w3.org/2000/svg" width="1035" height="1015">
<path d="M0 0 C341.55 0 683.1 0 1035 0 C1035 334.95 1035 669.9 1035 1015 C693.45 1015 351.9 1015 0 1015 C0 680.05 0 345.1 0 0 Z " fill="#0000FE" transform="translate(0,0)"/>
<path d="M0 0 C1.0133844 0.00040787 1.0133844 0.00040787 2.04724121 0.00082397 C13.44577178 0.0218006 24.64211313 0.61377162 35.9375 2.1875 C36.70884277 2.28933594 37.48018555 2.39117187 38.27490234 2.49609375 C65.97668115 6.20722723 92.73751013 14.09361365 117.9375 26.1875 C118.79021484 26.58807617 119.64292969 26.98865234 120.52148438 27.40136719 C139.82406259 36.49678651 157.56786854 47.48235852 173.9375 61.1875 C174.82260254 61.92830811 174.82260254 61.92830811 175.72558594 62.68408203 C179.83527741 66.14100617 183.89504818 69.6523703 187.9375 73.1875 C188.87980469 74.00476563 189.82210937 74.82203125 190.79296875 75.6640625 C195.95184061 80.20636722 200.52705005 84.92652591 204.9375 90.1875 C205.85115937 91.24106453 206.76668339 92.29301357 207.68359375 93.34375 C241.80201662 132.53188997 262.82526048 178.10568147 271.9375 229.1875 C272.13085938 230.26668701 272.13085938 230.26668701 272.328125 231.36767578 C273.55569625 238.42438373 274.116273 245.45511675 274.484375 252.59765625 C274.52868652 253.42656372 274.57299805 254.25547119 274.61865234 255.10949707 C274.72670075 257.13540464 274.83234718 259.16144007 274.9375 261.1875 C275.69618818 261.18289104 276.45487637 261.17828207 277.2365551 261.17353344 C295.72461902 261.06295652 314.21261666 260.98029602 332.70094109 260.92843914 C341.64189428 260.90269286 350.5826263 260.86761106 359.5234375 260.81030273 C367.3191948 260.76035787 375.11479187 260.728183 382.91070473 260.71705753 C387.03600734 260.71055743 391.16085167 260.6953559 395.28600693 260.65884972 C399.17504334 260.62471448 403.06343611 260.61448191 406.95260811 260.62196159 C408.37394404 260.62059481 409.79530324 260.61076655 411.21650887 260.59147263 C420.89269138 260.46664105 428.76449295 261.37581522 436.07690239 268.17747021 C441.9299884 274.31353393 444.3938367 280.45317905 444.35742188 288.8918457 C444.36589142 289.6278299 444.37436096 290.36381409 444.38308716 291.12210083 C444.40633364 293.53600734 444.40748216 295.94927163 444.40625 298.36328125 C444.41336009 300.05568186 444.42106032 301.74808008 444.42932129 303.44047546 C444.44273852 306.98178816 444.4443478 310.52287805 444.43847656 314.06420898 C444.43258926 318.579972 444.46314402 323.09465663 444.50359344 327.61021137 C444.52957364 331.10462604 444.53233846 334.59878478 444.52870178 338.0932827 C444.53038404 339.75690605 444.53993952 341.42054238 444.55784607 343.08407021 C444.65676322 353.41064002 444.38105445 362.3643811 436.94763184 370.31611633 C430.88665011 376.13194875 424.93622275 378.56660604 416.56593323 378.54826355 C415.50340526 378.55210846 415.50340526 378.55210846 414.41941208 378.55603105 C412.06395738 378.56094244 409.70915464 378.54452064 407.35375977 378.52807617 C405.65816767 378.52722932 403.96257448 378.52770617 402.26698303 378.52940369 C397.67653788 378.53026281 393.08632891 378.51265043 388.49593854 378.49168181 C383.69399549 378.47290125 378.89204675 378.47116348 374.09007263 378.46760559 C365.00251645 378.45828919 355.9150688 378.43368086 346.82756037 378.40355712 C336.47936356 378.37000054 326.13116151 378.35352393 315.78292382 378.33847082 C294.50105535 378.30713096 273.21928452 378.2543783 251.9375 378.1875 C251.73707659 378.80235166 251.53665318 379.41720331 251.33015633 380.05068684 C250.93132901 381.26301377 250.93132901 381.26301377 250.52444458 382.49983215 C250.26214617 383.30030881 249.99984776 384.10078547 249.72960091 384.92551899 C248.75618207 387.70528467 247.52111609 390.23675966 246.1171875 392.82421875 C245.58673828 393.80648438 245.05628906 394.78875 244.50976562 395.80078125 C243.94966797 396.81527344 243.38957031 397.82976562 242.8125 398.875 C242.22919922 399.9371875 241.64589844 400.999375 241.04492188 402.09375 C233.58138635 415.57254955 225.31443892 427.58024006 215.4375 439.38330078 C213.40209075 441.83148997 211.42456879 444.32501131 209.4375 446.8125 C201.60318984 456.33993946 193.44720918 465.45581737 183.66796875 473.02734375 C181.40949669 474.81408917 179.25409861 476.64900034 177.09765625 478.5546875 C128.96439069 520.91038139 63.48560868 542.4186559 -0.125 542.375 C-1.1383844 542.37459213 -1.1383844 542.37459213 -2.17224121 542.37417603 C-13.57077178 542.3531994 -24.76711313 541.76122838 -36.0625 540.1875 C-36.83384277 540.08566406 -37.60518555 539.98382812 -38.39990234 539.87890625 C-66.10168115 536.16777277 -92.86251013 528.28138635 -118.0625 516.1875 C-118.91521484 515.78692383 -119.76792969 515.38634766 -120.64648438 514.97363281 C-139.94906259 505.87821349 -157.69286854 494.89264148 -174.0625 481.1875 C-174.65256836 480.69362793 -175.24263672 480.19975586 -175.85058594 479.69091797 C-179.96027741 476.23399383 -184.02004818 472.7226297 -188.0625 469.1875 C-189.00480469 468.37023437 -189.94710937 467.55296875 -190.91796875 466.7109375 C-196.07684061 462.16863278 -200.65205005 457.44847409 -205.0625 452.1875 C-205.97615937 451.13393547 -206.89168339 450.08198643 -207.80859375 449.03125 C-238.79548449 413.43996209 -260.32073307 371.66646243 -269.875 325.3125 C-270.08229736 324.31476563 -270.28959473 323.31703125 -270.50317383 322.2890625 C-271.57447868 316.79472802 -272.25327637 311.39205139 -272.6237793 305.80419922 C-272.74972725 303.93814529 -272.74972725 303.93814529 -272.8782196 302.03439331 C-272.9694384 300.62518112 -272.9694384 300.62518112 -273.0625 299.1875 C-273.65626875 299.19210896 -274.2500375 299.19671793 -274.86179924 299.20146656 C-289.34413416 299.31213791 -303.8264312 299.39474955 -318.30909538 299.44656086 C-325.31298942 299.47228585 -332.31660028 299.50732594 -339.3203125 299.56469727 C-346.08304642 299.62006795 -352.84548637 299.64894725 -359.60843277 299.66188622 C-362.18476101 299.67110363 -364.76107371 299.6891031 -367.33727646 299.71615028 C-370.95420446 299.75260351 -374.5699287 299.75743825 -378.18701172 299.75512695 C-379.24509537 299.77310333 -380.30317902 299.79107971 -381.39332581 299.80960083 C-389.50038228 299.75377809 -396.16237762 297.7958548 -402.213377 292.19752979 C-408.04690662 286.04269068 -410.51886103 279.92745997 -410.48242188 271.4831543 C-410.49512619 270.37917801 -410.49512619 270.37917801 -410.50808716 269.25289917 C-410.53133364 266.83899266 -410.53248216 264.42572837 -410.53125 262.01171875 C-410.53836009 260.31931814 -410.54606032 258.62691992 -410.55432129 256.93452454 C-410.56773852 253.39321184 -410.5693478 249.85212195 -410.56347656 246.31079102 C-410.55758926 241.795028 -410.58814402 237.28034337 -410.62859344 232.76478863 C-410.65457364 229.27037396 -410.65733846 225.77621522 -410.65370178 222.2817173 C-410.65538404 220.61809395 -410.66493952 218.95445762 -410.68284607 217.29092979 C-410.78176322 206.96435998 -410.50605445 198.0106189 -403.07263184 190.05888367 C-395.17239502 182.47818874 -387.90887859 181.74237897 -377.33422852 181.75512695 C-376.06524216 181.7449353 -374.7962558 181.73474365 -373.48881531 181.72424316 C-370.02650722 181.69676819 -366.56436336 181.6874017 -363.10196042 181.68138909 C-359.47708258 181.67198051 -355.85232621 181.6457752 -352.2275238 181.62138367 C-345.37124986 181.57778306 -338.51499957 181.54919666 -331.65862936 181.52606028 C-323.84959745 181.49897398 -316.04068815 181.45506466 -308.23174393 181.40977156 C-292.17539152 181.31701758 -276.11901712 181.24529465 -260.0625 181.1875 C-259.58469589 180.02208176 -259.10689178 178.85666351 -258.61460876 177.65592957 C-257.98001142 176.11069071 -257.34537066 174.56546969 -256.71069336 173.02026367 C-256.39669334 172.25405449 -256.08269333 171.48784531 -255.75917816 170.69841766 C-253.51330738 165.23396388 -251.17736177 159.82932653 -248.625 154.5 C-248.05942383 153.31531128 -248.05942383 153.31531128 -247.48242188 152.10668945 C-244.00746559 144.92031105 -240.20296511 138.01323762 -236.0625 131.1875 C-235.38832031 130.06214844 -234.71414063 128.93679688 -234.01953125 127.77734375 C-228.58907906 118.9127818 -222.22619244 110.95489178 -215.5625 102.99169922 C-213.52709075 100.54351003 -211.54956879 98.04998869 -209.5625 95.5625 C-201.72818984 86.03506054 -193.57220918 76.91918263 -183.79296875 69.34765625 C-181.53449669 67.56091083 -179.37909861 65.72599966 -177.22265625 63.8203125 C-129.08939069 21.46461861 -63.61060868 -0.0436559 0 0 Z " fill="#FDFDFE" transform="translate(493.0625,186.8125)"/>
<path d="M0 0 C0.82321747 0.00021149 1.64643494 0.00042297 2.49459839 0.00064087 C17.51779821 0.03886876 31.9380097 1.36315798 46.6875 4.375 C47.63882812 4.56755371 48.59015625 4.76010742 49.5703125 4.95849609 C101.72282765 15.82662991 150.57987844 44.37529765 183.6875 86.375 C184.58185668 87.46865714 185.47775411 88.56105569 186.375 89.65234375 C193.00504902 97.78801221 198.59058232 106.20750642 203.6875 115.375 C204.09355469 116.09816406 204.49960937 116.82132812 204.91796875 117.56640625 C221.99921005 148.20752525 233.6875 184.03570675 233.6875 219.375 C169.9975 219.375 106.3075 219.375 40.6875 219.375 C40.3575 201.555 40.0275 183.735 39.6875 165.375 C37.08762568 153.58918187 37.08762568 153.58918187 28.875 145.5 C22.1333782 141.3889044 14.61562883 141.07960008 6.95581055 141.0965271 C5.53060656 141.0878385 5.53060656 141.0878385 4.07661057 141.07897437 C0.90911172 141.06203821 -2.25824086 141.05910335 -5.42578125 141.05615234 C-7.702798 141.04684977 -9.97981135 141.03668061 -12.25682068 141.02571106 C-18.42763054 140.9984342 -24.59841759 140.98326843 -30.76927185 140.97028303 C-37.22218437 140.95464243 -43.67505039 140.92785514 -50.12792969 140.9022522 C-60.95522827 140.86079337 -71.78252574 140.82619431 -82.60986328 140.796875 C-93.75929595 140.76666463 -104.90870315 140.73230298 -116.05810547 140.69238281 C-116.74599966 140.68992126 -117.43389385 140.68745972 -118.14263332 140.68492357 C-121.59378895 140.67254849 -125.04494428 140.66009205 -128.49609947 140.64759517 C-157.10153032 140.54411799 -185.70699448 140.4550316 -214.3125 140.375 C-213.36654886 138.14246858 -212.41812011 135.91104432 -211.46826172 133.68017578 C-211.20297165 133.05335403 -210.93768158 132.42653229 -210.66435242 131.78071594 C-208.52571529 126.76610077 -206.13543435 121.98236125 -203.4375 117.25 C-202.7892627 116.10446655 -202.7892627 116.10446655 -202.12792969 114.93579102 C-192.06873698 97.33962754 -179.23865601 82.03290805 -165.3125 67.375 C-164.70277344 66.72402344 -164.09304688 66.07304687 -163.46484375 65.40234375 C-158.49362823 60.24309171 -152.94494968 55.78711321 -147.3125 51.375 C-146.71228027 50.90368652 -146.11206055 50.43237305 -145.49365234 49.94677734 C-103.99429232 17.56861983 -52.64538316 -0.12610392 0 0 Z " fill="#0000FF" transform="translate(492.3125,228.625)"/>
<path d="M0 0 C74.25 0 148.5 0 225 0 C225.33 17.82 225.66 35.64 226 54 C228.59987432 65.78581813 228.59987432 65.78581813 236.8125 73.875 C242.9867134 77.64008536 250.02659279 78.29779483 257.09924316 78.2784729 C258.26105803 78.2871615 258.26105803 78.2871615 259.4463439 78.29602563 C262.01961106 78.31291549 264.59269768 78.31589256 267.16601562 78.31884766 C269.01939325 78.32815345 270.87276671 78.33832309 272.72613525 78.34928894 C277.74202166 78.37652956 282.75788006 78.39172075 287.77382088 78.40471697 C293.02156907 78.42037351 298.26926032 78.44715568 303.51696777 78.4727478 C313.44731712 78.51949093 323.37767723 78.55625666 333.3080802 78.58942068 C344.61642923 78.62767362 355.92472101 78.67707548 367.23302174 78.72740483 C390.48863869 78.83065826 413.74429245 78.91994009 437 79 C435.91089979 81.21394272 434.81790227 83.42581839 433.72265625 85.63671875 C433.41863892 86.25575073 433.11462158 86.87478271 432.8013916 87.51257324 C424.10117876 105.0339152 410.38488789 119.91180109 397 134 C396.39027344 134.65097656 395.78054688 135.30195312 395.15234375 135.97265625 C390.18112823 141.13190829 384.63244968 145.58788679 379 150 C378.39978027 150.47131348 377.79956055 150.94262695 377.18115234 151.42822266 C335.68179232 183.80638017 284.33288316 201.50110392 231.6875 201.375 C230.86428253 201.37478851 230.04106506 201.37457703 229.19290161 201.37435913 C214.16970179 201.33613124 199.7494903 200.01184202 185 197 C184.04867187 196.80744629 183.09734375 196.61489258 182.1171875 196.41650391 C129.96467235 185.54837009 81.10762156 156.99970235 48 115 C47.10564332 113.90634286 46.20974589 112.81394431 45.3125 111.72265625 C38.68245098 103.58698779 33.09691768 95.16749358 28 86 C27.59394531 85.27683594 27.18789063 84.55367187 26.76953125 83.80859375 C13.03340199 59.16809111 0 28.68619403 0 0 Z " fill="#0000FF" transform="translate(262,486)"/>
<path d="M0 0 C1.27629713 -0.00260775 2.55259426 -0.00521549 3.86756706 -0.00790226 C5.30240772 -0.00573974 6.73724824 -0.00348306 8.17208862 -0.0011425 C9.6819163 -0.00229333 11.1917437 -0.0038806 12.70157051 -0.00586975 C16.87036409 -0.01006828 21.03913496 -0.00797003 25.20792866 -0.00488353 C29.69604463 -0.00263176 34.18415655 -0.00610792 38.67227173 -0.00886345 C47.4723495 -0.01332255 56.27241878 -0.01234406 65.07249689 -0.00945081 C72.22111233 -0.00719732 79.36972537 -0.00688401 86.51834106 -0.00797462 C88.04137807 -0.00820447 88.04137807 -0.00820447 89.59518349 -0.00843897 C91.65751823 -0.00875868 93.71985296 -0.00908289 95.7821877 -0.00941156 C115.145034 -0.01226676 134.50787558 -0.0089787 153.8707211 -0.00361119 C170.50421967 0.00085688 187.13771127 0.00008096 203.77120972 -0.00452995 C223.06224368 -0.00987501 242.35327349 -0.01199207 261.64430809 -0.00891769 C263.6992836 -0.00859912 265.75425911 -0.00828475 267.80923462 -0.00797462 C268.82046328 -0.00782035 269.83169194 -0.00766607 270.87356389 -0.00750712 C278.01801536 -0.00664176 285.16246421 -0.00810526 292.30691528 -0.01045418 C301.00726129 -0.01325162 309.70759828 -0.01251511 318.40794325 -0.00717343 C322.85151383 -0.00453565 327.29506934 -0.00353264 331.73863983 -0.00682259 C335.79972431 -0.00978399 339.86077961 -0.00819537 343.92186141 -0.00284503 C345.39761315 -0.00172017 346.87336731 -0.00231353 348.34911752 -0.00472082 C350.34193526 -0.00772431 352.33475983 -0.00407175 354.32757568 0 C355.43847502 0.00016235 356.54937435 0.0003247 357.6939373 0.00049198 C360.16378784 0.12584114 360.16378784 0.12584114 361.16378784 1.12584114 C361.26461548 3.5624456 361.30351387 5.97008815 361.29660034 8.40709114 C361.29803543 9.50011543 361.29803543 9.50011543 361.29949951 10.61522102 C361.3001812 12.15863824 361.29832772 13.70205831 361.29415894 15.24547005 C361.28881046 17.61581514 361.29410426 19.98597073 361.30050659 22.35630989 C361.29984581 23.85240406 361.29856464 25.34849811 361.29660034 26.84459114 C361.29862457 27.55812752 361.3006488 28.27166389 361.30273438 29.00682259 C361.27873975 34.01088923 361.27873975 34.01088923 360.16378784 35.12584114 C358.22043278 35.22446975 356.2734319 35.2513979 354.32757568 35.25168228 C353.05127855 35.25429003 351.77498142 35.25689778 350.46000862 35.25958455 C349.02516796 35.25742202 347.59032744 35.25516534 346.15548706 35.25282478 C344.64565938 35.25397562 343.13583198 35.25556288 341.62600517 35.25755203 C337.45721159 35.26175056 333.28844072 35.25965231 329.11964703 35.25656581 C324.63153105 35.25431405 320.14341914 35.2577902 315.65530396 35.26054573 C306.85522618 35.26500483 298.05515691 35.26402634 289.25507879 35.26113309 C282.10646336 35.2588796 274.95785031 35.2585663 267.80923462 35.25965691 C266.28619762 35.25988676 266.28619762 35.25988676 264.73239219 35.26012125 C262.67005745 35.26044096 260.60772272 35.26076517 258.54538798 35.26109384 C239.18254168 35.26394904 219.81970011 35.26066098 200.45685458 35.25529347 C183.82335601 35.2508254 167.18986441 35.25160132 150.55636597 35.25621223 C131.26533201 35.26155729 111.97430219 35.26367435 92.68326759 35.26059997 C90.62829208 35.2602814 88.57331657 35.25996703 86.51834106 35.25965691 C85.50711241 35.25950263 84.49588375 35.25934836 83.4540118 35.2591894 C76.30956032 35.25832404 69.16511147 35.25978754 62.0206604 35.26213646 C53.32031439 35.2649339 44.6199774 35.26419739 35.91963243 35.25885572 C31.47606185 35.25621793 27.03250634 35.25521492 22.58893585 35.25850487 C18.52785137 35.26146627 14.46679607 35.25987765 10.40571427 35.25452732 C8.92996253 35.25340246 7.45420837 35.25399581 5.97845817 35.2564031 C3.98564042 35.25940659 1.99281585 35.25575403 0 35.25168228 C-1.11089933 35.25151993 -2.22179867 35.25135758 -3.36636162 35.2511903 C-5.83621216 35.12584114 -5.83621216 35.12584114 -6.83621216 34.12584114 C-6.93703979 31.68923669 -6.97593819 29.28159413 -6.96902466 26.84459114 C-6.96998138 26.11590828 -6.97093811 25.38722542 -6.97192383 24.63646126 C-6.97260551 23.09304404 -6.97075203 21.54962397 -6.96658325 20.00621223 C-6.96123478 17.63586714 -6.96652858 15.26571155 -6.97293091 12.89537239 C-6.97227012 11.39927822 -6.97098896 9.90318417 -6.96902466 8.40709114 C-6.97104889 7.69355476 -6.97307312 6.98001839 -6.97515869 6.2448597 C-6.94445724 -0.1579125 -6.24087143 0.00091207 0 0 Z " fill="#0000FE" transform="translate(534.8362121582031,488.87415885925293)"/>
<path d="M0 0 C1.27629713 -0.00260775 2.55259426 -0.00521549 3.86756706 -0.00790226 C5.30240772 -0.00573974 6.73724824 -0.00348306 8.17208862 -0.0011425 C9.6819163 -0.00229333 11.1917437 -0.0038806 12.70157051 -0.00586975 C16.87036409 -0.01006828 21.03913496 -0.00797003 25.20792866 -0.00488353 C29.69604463 -0.00263176 34.18415655 -0.00610792 38.67227173 -0.00886345 C47.4723495 -0.01332255 56.27241878 -0.01234406 65.07249689 -0.00945081 C72.22111233 -0.00719732 79.36972537 -0.00688401 86.51834106 -0.00797462 C88.04137807 -0.00820447 88.04137807 -0.00820447 89.59518349 -0.00843897 C91.65751823 -0.00875868 93.71985296 -0.00908289 95.7821877 -0.00941156 C115.145034 -0.01226676 134.50787558 -0.0089787 153.8707211 -0.00361119 C170.50421967 0.00085688 187.13771127 0.00008096 203.77120972 -0.00452995 C223.06224368 -0.00987501 242.35327349 -0.01199207 261.64430809 -0.00891769 C263.6992836 -0.00859912 265.75425911 -0.00828475 267.80923462 -0.00797462 C268.82046328 -0.00782035 269.83169194 -0.00766607 270.87356389 -0.00750712 C278.01801536 -0.00664176 285.16246421 -0.00810526 292.30691528 -0.01045418 C301.00726129 -0.01325162 309.70759828 -0.01251511 318.40794325 -0.00717343 C322.85151383 -0.00453565 327.29506934 -0.00353264 331.73863983 -0.00682259 C335.79972431 -0.00978399 339.86077961 -0.00819537 343.92186141 -0.00284503 C345.39761315 -0.00172017 346.87336731 -0.00231353 348.34911752 -0.00472082 C350.34193526 -0.00772431 352.33475983 -0.00407175 354.32757568 0 C355.43847502 0.00016235 356.54937435 0.0003247 357.6939373 0.00049198 C360.16378784 0.12584114 360.16378784 0.12584114 361.16378784 1.12584114 C361.26461548 3.5624456 361.30351387 5.97008815 361.29660034 8.40709114 C361.29803543 9.50011543 361.29803543 9.50011543 361.29949951 10.61522102 C361.3001812 12.15863824 361.29832772 13.70205831 361.29415894 15.24547005 C361.28881046 17.61581514 361.29410426 19.98597073 361.30050659 22.35630989 C361.29984581 23.85240406 361.29856464 25.34849811 361.29660034 26.84459114 C361.29862457 27.55812752 361.3006488 28.27166389 361.30273438 29.00682259 C361.27873975 34.01088923 361.27873975 34.01088923 360.16378784 35.12584114 C358.22043278 35.22446975 356.2734319 35.2513979 354.32757568 35.25168228 C353.05127855 35.25429003 351.77498142 35.25689778 350.46000862 35.25958455 C349.02516796 35.25742202 347.59032744 35.25516534 346.15548706 35.25282478 C344.64565938 35.25397562 343.13583198 35.25556288 341.62600517 35.25755203 C337.45721159 35.26175056 333.28844072 35.25965231 329.11964703 35.25656581 C324.63153105 35.25431405 320.14341914 35.2577902 315.65530396 35.26054573 C306.85522618 35.26500483 298.05515691 35.26402634 289.25507879 35.26113309 C282.10646336 35.2588796 274.95785031 35.2585663 267.80923462 35.25965691 C266.28619762 35.25988676 266.28619762 35.25988676 264.73239219 35.26012125 C262.67005745 35.26044096 260.60772272 35.26076517 258.54538798 35.26109384 C239.18254168 35.26394904 219.81970011 35.26066098 200.45685458 35.25529347 C183.82335601 35.2508254 167.18986441 35.25160132 150.55636597 35.25621223 C131.26533201 35.26155729 111.97430219 35.26367435 92.68326759 35.26059997 C90.62829208 35.2602814 88.57331657 35.25996703 86.51834106 35.25965691 C85.50711241 35.25950263 84.49588375 35.25934836 83.4540118 35.2591894 C76.30956032 35.25832404 69.16511147 35.25978754 62.0206604 35.26213646 C53.32031439 35.2649339 44.6199774 35.26419739 35.91963243 35.25885572 C31.47606185 35.25621793 27.03250634 35.25521492 22.58893585 35.25850487 C18.52785137 35.26146627 14.46679607 35.25987765 10.40571427 35.25452732 C8.92996253 35.25340246 7.45420837 35.25399581 5.97845817 35.2564031 C3.98564042 35.25940659 1.99281585 35.25575403 0 35.25168228 C-1.11089933 35.25151993 -2.22179867 35.25135758 -3.36636162 35.2511903 C-5.83621216 35.12584114 -5.83621216 35.12584114 -6.83621216 34.12584114 C-6.93703979 31.68923669 -6.97593819 29.28159413 -6.96902466 26.84459114 C-6.96998138 26.11590828 -6.97093811 25.38722542 -6.97192383 24.63646126 C-6.97260551 23.09304404 -6.97075203 21.54962397 -6.96658325 20.00621223 C-6.96123478 17.63586714 -6.96652858 15.26571155 -6.97293091 12.89537239 C-6.97227012 11.39927822 -6.97098896 9.90318417 -6.96902466 8.40709114 C-6.97104889 7.69355476 -6.97307312 6.98001839 -6.97515869 6.2448597 C-6.94445724 -0.1579125 -6.24087143 0.00091207 0 0 Z " fill="#0000FE" transform="translate(130.83621215820313,409.87415885925293)"/>
<path d="M0 0 C0.639375 0.639375 1.27875 1.27875 1.9375 1.9375 C2.5975 0.6175 3.2575 -0.7025 3.9375 -2.0625 C6.24993792 -2.08935412 8.5624627 -2.10882841 10.875 -2.125 C12.16277344 -2.13660156 13.45054687 -2.14820313 14.77734375 -2.16015625 C17.9375 -2.0625 17.9375 -2.0625 18.9375 -1.0625 C19.04604328 0.35746641 19.08651736 1.78272972 19.09863281 3.20678711 C19.10824036 4.11541 19.1178479 5.0240329 19.12774658 5.96018982 C19.13199646 6.95172562 19.13624634 7.94326141 19.140625 8.96484375 C19.14632507 9.98292618 19.15202515 11.00100861 19.15789795 12.04994202 C19.16737033 14.21468054 19.17389076 16.37943362 19.17773438 18.54418945 C19.18736764 21.82985445 19.21833953 25.11487458 19.25 28.40039062 C19.25653716 30.50520463 19.26178482 32.6100231 19.265625 34.71484375 C19.2779718 35.68816147 19.2903186 36.66147919 19.30303955 37.66429138 C19.27477933 46.48759652 17.75580618 55.01843319 11.9375 61.9375 C5.32933943 68.44965824 -3.00529653 70.93401324 -12.1875 71.25 C-24.76425439 70.23574561 -24.76425439 70.23574561 -28.0625 66.9375 C-28.2578125 64.3359375 -28.2578125 64.3359375 -28.1875 61.3125 C-28.16945313 60.30960938 -28.15140625 59.30671875 -28.1328125 58.2734375 C-28.09800781 57.11714844 -28.09800781 57.11714844 -28.0625 55.9375 C-24.23091405 54.66030468 -22.83365345 55.66519338 -19.0625 56.9375 C-13.24252945 57.54492411 -7.88960199 57.61879227 -2.375 55.5625 C0.96636236 51.76960219 1.39226041 47.86345768 1.9375 42.9375 C0.98875 43.741875 0.04 44.54625 -0.9375 45.375 C-5.9826679 48.95248269 -11.18576687 49.54411112 -17.234375 48.59765625 C-23.04842174 46.87372379 -26.72238319 42.86642914 -30.0625 37.9375 C-33.93321488 30.59738182 -33.33310471 19.57180379 -31.1875 11.74609375 C-28.38868233 5.71574647 -24.31804565 0.80854768 -18.15234375 -1.90234375 C-11.87294605 -3.81237923 -5.49597733 -3.70137249 0 0 Z " fill="#FDFDFE" transform="translate(582.0625,811.0625)"/>
<path d="M0 0 C5.8191225 5.35971809 8.04913539 11.2119518 8.6875 19 C8.40633872 27.07557669 5.96180684 33.67833807 0.30859375 39.49609375 C-6.4403088 45.39967921 -13.78571484 46.43214929 -22.625 46.1875 C-30.10379077 45.18822416 -35.74545835 41.94067138 -40.625 36.1875 C-44.25153766 30.88965762 -45.29036426 27.12365181 -45.125 20.75 C-45.11146484 19.9986377 -45.09792969 19.24727539 -45.08398438 18.47314453 C-44.7866902 10.53435289 -42.69293826 5.98231531 -37.0625 0.375 C-26.23375303 -8.35592698 -11.08126095 -7.65134685 0 0 Z " fill="#FDFDFE" transform="translate(392.625,813.8125)"/>
<path d="M0 0 C1.04124023 0.04060547 1.04124023 0.04060547 2.10351562 0.08203125 C6.42919079 0.33672437 9.70196825 0.75807006 12.9375 3.75 C13.42578125 6.88671875 13.42578125 6.88671875 13.25 10.4375 C13.20488281 11.61699219 13.15976562 12.79648437 13.11328125 14.01171875 C13.02626953 15.36716797 13.02626953 15.36716797 12.9375 16.75 C11.9475 17.245 11.9475 17.245 10.9375 17.75 C9.844375 17.275625 8.75125 16.80125 7.625 16.3125 C1.95723601 14.04122693 -4.04882467 14.11654856 -10.0625 14.75 C-11.0525 15.41 -12.0425 16.07 -13.0625 16.75 C-13.20726007 20.12376651 -13.20726007 20.12376651 -12.0625 23.75 C-9.62526098 25.66349028 -6.87630874 26.6457405 -4 27.75 C4.07245873 31.19752523 10.389698 34.37096531 14.9375 42.1875 C16.49245401 47.72702367 16.49245401 51.77297633 14.9375 57.3125 C11.78138519 62.73707233 7.61288203 66.54880807 1.875 69.125 C-8.17904109 71.26415768 -19.81650166 72.27508027 -29.375 67.625 C-31.95882303 64.75408553 -31.45091071 62.33419178 -31.3125 58.5625 C-31.27640625 57.29019531 -31.2403125 56.01789062 -31.203125 54.70703125 C-31.13351562 53.24330078 -31.13351562 53.24330078 -31.0625 51.75 C-27.84063263 51.75 -26.98086492 52.24619675 -24.25 53.75 C-18.1765793 56.56158355 -11.62999047 56.68700699 -5.0625 55.75 C-3.15228722 54.36092413 -3.15228722 54.36092413 -2.0625 52.75 C-2.62509902 49.7900574 -3.08236856 47.47248087 -5.59863281 45.61767578 C-7.59920557 44.59762295 -9.62111595 43.6915347 -11.6875 42.8125 C-19.56408689 39.1840289 -26.1893738 35.15097264 -31.0625 27.75 C-32.7109783 22.29332814 -32.2324202 17.09582252 -30.19921875 11.82421875 C-27.11978744 6.20505028 -22.04297284 3.34783936 -16.15234375 1.29296875 C-10.69689274 -0.1244288 -5.60427261 -0.34536134 0 0 Z " fill="#FDFDFE" transform="translate(476.0625,789.25)"/>
<path d="M0 0 C6.26088627 5.53287624 9.82480424 9.86118281 10.6875 18.375 C10.85894872 21.38693698 10.9760759 24.3684418 10.6875 27.375 C9.6875 28.375 9.6875 28.375 6.82006836 28.48852539 C5.56846924 28.48328857 4.31687012 28.47805176 3.02734375 28.47265625 C2.03064415 28.47053383 2.03064415 28.47053383 1.0138092 28.46836853 C-1.11583899 28.46275518 -3.24538339 28.45020054 -5.375 28.4375 C-6.81575369 28.43248671 -8.25650903 28.42792351 -9.69726562 28.42382812 C-13.23571102 28.41278145 -16.77409539 28.39550792 -20.3125 28.375 C-18.48334941 32.66658288 -18.48334941 32.66658288 -15.1875 35.75 C-8.16061541 37.27758361 -2.15665194 36.20825498 4.6875 34.375 C5.6875 35.375 5.6875 35.375 5.78515625 37.66015625 C5.77355469 38.57667969 5.76195312 39.49320313 5.75 40.4375 C5.74097656 41.35660156 5.73195313 42.27570312 5.72265625 43.22265625 C5.71105469 43.93292969 5.69945312 44.64320313 5.6875 45.375 C-1.8609441 49.50867177 -11.39726944 50.50350351 -19.8125 48.6875 C-26.86841323 46.04153254 -32.00007133 41.94325943 -35.4296875 35.16796875 C-37.6636608 28.10030987 -37.50205987 18.20300959 -34.8125 11.3125 C-31.37458523 5.02568383 -26.23487804 0.75201578 -19.5 -1.625 C-12.75689114 -3.29778972 -6.26790201 -3.07481985 0 0 Z " fill="#FDFDFE" transform="translate(534.3125,810.625)"/>
<path d="M0 0 C1.27875 0.00257813 2.5575 0.00515625 3.875 0.0078125 C5.15375 0.00523437 6.4325 0.00265625 7.75 0 C10.875 0.1328125 10.875 0.1328125 11.875 1.1328125 C12.00931856 3.20691015 12.07865041 5.28527232 12.12109375 7.36328125 C12.15396484 8.64138672 12.18683594 9.91949219 12.22070312 11.23632812 C12.26790794 13.27249424 12.3122734 15.30864073 12.35180664 17.3449707 C12.39184217 19.30958835 12.44385614 21.27395018 12.49609375 23.23828125 C12.5211499 24.41543701 12.54620605 25.59259277 12.57202148 26.80541992 C13.07936693 32.4153968 13.07936693 32.4153968 15.875 37.1328125 C20.60151177 37.62762162 20.60151177 37.62762162 24.75 35.7578125 C27.20193668 32.21612618 27.05493614 29.47865295 27.15625 25.19140625 C27.17465942 24.50853043 27.19306885 23.8256546 27.21203613 23.12208557 C27.29081002 20.19589062 27.35859985 17.2694649 27.42724609 14.34301758 C27.47886152 12.20902734 27.53614393 10.07524178 27.59375 7.94140625 C27.63918945 6.02026001 27.63918945 6.02026001 27.68554688 4.06030273 C27.875 1.1328125 27.875 1.1328125 28.875 0.1328125 C31.20660055 0.03371948 33.54129942 0.00310746 35.875 0.0078125 C37.15375 0.00523437 38.4325 0.00265625 39.75 0 C42.875 0.1328125 42.875 0.1328125 43.875 1.1328125 C43.97331146 2.63151298 44.00298456 4.13479789 44.00439453 5.63671875 C44.00754669 6.59441162 44.01069885 7.55210449 44.01394653 8.53881836 C44.0119223 9.58046143 44.00989807 10.62210449 44.0078125 11.6953125 C44.00876923 12.75693604 44.00972595 13.81855957 44.01071167 14.91235352 C44.01139364 17.16194722 44.00953819 19.41154287 44.00537109 21.66113281 C44.0000231 25.11788321 44.00531554 28.57450367 44.01171875 32.03125 C44.01105797 34.21093779 44.00977682 36.3906255 44.0078125 38.5703125 C44.00983673 39.61195557 44.01186096 40.65359863 44.01394653 41.72680664 C44.00921829 43.16334595 44.00921829 43.16334595 44.00439453 44.62890625 C44.00359894 45.47638428 44.00280334 46.3238623 44.00198364 47.19702148 C43.875 49.1328125 43.875 49.1328125 42.875 50.1328125 C40.52186445 50.20552991 38.16666332 50.21652118 35.8125 50.1953125 C34.52214844 50.18628906 33.23179687 50.17726563 31.90234375 50.16796875 C30.90332031 50.15636719 29.90429688 50.14476562 28.875 50.1328125 C28.215 48.4828125 27.555 46.8328125 26.875 45.1328125 C25.905625 45.9371875 24.93625 46.7415625 23.9375 47.5703125 C19.73012302 50.54771032 16.00412925 51.42413998 10.875 51.1328125 C6.27929209 50.26647618 3.45809301 48.66520177 0 45.5078125 C-5.0845889 37.43228896 -4.41028688 28.04791192 -4.33081055 18.83691406 C-4.31230976 16.60991208 -4.310303 14.38332157 -4.31054688 12.15625 C-4.26898881 0.18143202 -4.26898881 0.18143202 0 0 Z " fill="#FDFDFE" transform="translate(615.125,808.8671875)"/>
<path d="M0 0 C1.58669495 -0.00472824 1.58669495 -0.00472824 3.20544434 -0.009552 C4.93196228 -0.00651566 4.93196228 -0.00651566 6.69335938 -0.00341797 C8.45226501 -0.00485306 8.45226501 -0.00485306 10.2467041 -0.00631714 C12.73169 -0.00699917 15.21667766 -0.00514331 17.70166016 -0.00097656 C21.52054825 0.00437134 25.33931872 -0.00092083 29.15820312 -0.00732422 C31.56575547 -0.00666344 33.97330774 -0.00538229 36.38085938 -0.00341797 C38.10737732 -0.00645432 38.10737732 -0.00645432 39.86877441 -0.009552 C40.92657104 -0.00639984 41.98436768 -0.00324768 43.07421875 0 C44.47867249 0.00119339 44.47867249 0.00119339 45.91149902 0.00241089 C48.03710938 0.12939453 48.03710938 0.12939453 49.03710938 1.12939453 C49.13584754 3.12739025 49.16682737 5.12896611 49.16210938 7.12939453 C49.16597656 8.76908203 49.16597656 8.76908203 49.16992188 10.44189453 C49.03710938 13.12939453 49.03710938 13.12939453 48.03710938 14.12939453 C46.69443524 14.21571327 45.34736616 14.23645926 44.00195312 14.22705078 C43.19306641 14.22382812 42.38417969 14.22060547 41.55078125 14.21728516 C40.70064453 14.20890625 39.85050781 14.20052734 38.97460938 14.19189453 C38.12060547 14.18738281 37.26660156 14.18287109 36.38671875 14.17822266 C34.27015274 14.16639827 32.15362252 14.14846222 30.03710938 14.12939453 C30.03932999 14.80369003 30.0415506 15.47798553 30.0438385 16.17271423 C30.06588867 23.16372144 30.08101485 30.15471884 30.09204102 37.14575195 C30.09708314 39.75806072 30.10391663 42.37036665 30.11254883 44.98266602 C30.12461973 48.72819721 30.13033873 52.47369125 30.13476562 56.21923828 C30.13992691 57.39526108 30.1450882 58.57128387 30.15040588 59.78294373 C30.15048141 60.8639888 30.15055695 61.94503387 30.15063477 63.05883789 C30.15285538 64.01592148 30.15507599 64.97300507 30.15736389 65.95909119 C30.03710938 68.12939453 30.03710938 68.12939453 29.03710938 69.12939453 C26.52574833 69.22914485 24.04807523 69.26821636 21.53710938 69.25439453 C20.83457031 69.25826172 20.13203125 69.26212891 19.40820312 69.26611328 C14.16372315 69.25600831 14.16372315 69.25600831 13.03710938 68.12939453 C12.94357774 66.44137468 12.91966147 64.74944246 12.92358398 63.05883789 C12.92365952 61.97779282 12.92373505 60.89674774 12.92381287 59.78294373 C12.92897415 58.60692093 12.93413544 57.43089813 12.93945312 56.21923828 C12.94086807 55.0220668 12.94228302 53.82489532 12.94374084 52.59144592 C12.94935958 48.74990387 12.96191527 44.90841911 12.97460938 41.06689453 C12.97962196 38.46989016 12.98418528 35.87288488 12.98828125 33.27587891 C12.9993351 26.89369775 13.01609146 20.51155023 13.03710938 14.12939453 C11.74933594 14.14099609 10.4615625 14.15259766 9.13476562 14.16455078 C7.45638165 14.17392723 5.77799612 14.18302758 4.09960938 14.19189453 C2.8244043 14.20446289 2.8244043 14.20446289 1.5234375 14.21728516 C0.71455078 14.22050781 -0.09433594 14.22373047 -0.92773438 14.22705078 C-1.67659912 14.2322876 -2.42546387 14.23752441 -3.19702148 14.24291992 C-4.96289062 14.12939453 -4.96289062 14.12939453 -5.96289062 13.12939453 C-6.06162879 11.13139881 -6.09260862 9.12982295 -6.08789062 7.12939453 C-6.09046875 6.03626953 -6.09304688 4.94314453 -6.09570312 3.81689453 C-5.86967165 -0.75691875 -4.10781718 0.00349049 0 0 Z " fill="#FCFCFD" transform="translate(303.962890625,789.87060546875)"/>
<path d="M0 0 C0 4.62 0 9.24 0 14 C2.1965625 13.9690625 2.1965625 13.9690625 4.4375 13.9375 C5.95832518 13.91607993 7.48071962 13.92820036 9 14 C10 15 10 15 10.1328125 17.46875 C10.13023437 18.4690625 10.12765625 19.469375 10.125 20.5 C10.12886719 22.00046875 10.12886719 22.00046875 10.1328125 23.53125 C10 26 10 26 9 27 C7.48071962 27.07179964 5.95832518 27.08392007 4.4375 27.0625 C3.61121094 27.05347656 2.78492188 27.04445313 1.93359375 27.03515625 C0.97646484 27.01775391 0.97646484 27.01775391 0 27 C0.13815529 30.81281945 0.28680562 34.62515717 0.4375 38.4375 C0.47681641 39.52611328 0.51613281 40.61472656 0.55664062 41.73632812 C0.59853516 42.77080078 0.64042969 43.80527344 0.68359375 44.87109375 C0.72025146 45.82943115 0.75690918 46.78776855 0.79467773 47.77514648 C0.75834424 49.97138925 0.75834424 49.97138925 2 51 C3.155 51 4.31 51 5.5 51 C6.655 51 7.81 51 9 51 C10.66561399 52.66561399 10.17115945 54.65962705 10.1875 56.9375 C10.20167969 57.83339844 10.21585937 58.72929688 10.23046875 59.65234375 C10 62 10 62 8 64 C1.3514875 65.48864 -5.07859619 65.67294623 -11 62 C-15.30310558 57.47622233 -16.12531922 54.82086654 -16.09765625 48.6796875 C-16.09443359 47.42285156 -16.09121094 46.16601562 -16.08789062 44.87109375 C-16.07951172 43.55238281 -16.07113281 42.23367188 -16.0625 40.875 C-16.05748489 39.53515789 -16.05292201 38.195314 -16.04882812 36.85546875 C-16.03701086 33.57026794 -16.02053617 30.28515603 -16 27 C-17.7015625 27.0309375 -17.7015625 27.0309375 -19.4375 27.0625 C-23 27 -23 27 -24 26 C-24.09851171 24.16884117 -24.12972629 22.33380067 -24.125 20.5 C-24.12757813 19.4996875 -24.13015625 18.499375 -24.1328125 17.46875 C-24 15 -24 15 -23 14 C-20.66702567 13.95907063 -18.33294775 13.95758277 -16 14 C-16 10.7 -16 7.4 -16 4 C-3.35483871 -1.67741935 -3.35483871 -1.67741935 0 0 Z " fill="#FDFDFE" transform="translate(429,795)"/>
<path d="M0 0 C1 1 1 1 1.1328125 3.6875 C1.13023437 4.780625 1.12765625 5.87375 1.125 7 C1.12886719 8.6396875 1.12886719 8.6396875 1.1328125 10.3125 C1 13 1 13 0 14 C-1.43530239 14.13101137 -2.87358964 14.23007469 -4.3125 14.3125 C-7.60776919 14.64255081 -8.78138132 14.83603599 -11.5 16.875 C-14.10733211 20.56872048 -14.16100748 23.76177933 -14.28125 28.1640625 C-14.31863281 29.36804688 -14.35601563 30.57203125 -14.39453125 31.8125 C-14.46505971 34.3619732 -14.53537089 36.91145242 -14.60546875 39.4609375 C-14.64285156 40.66234375 -14.68023438 41.86375 -14.71875 43.1015625 C-14.76418945 44.76179443 -14.76418945 44.76179443 -14.81054688 46.45556641 C-15 49 -15 49 -16 50 C-18.33160055 50.09909302 -20.66629942 50.12970504 -23 50.125 C-24.27875 50.12757813 -25.5575 50.13015625 -26.875 50.1328125 C-30 50 -30 50 -31 49 C-31.09831146 47.50129952 -31.12798456 45.99801461 -31.12939453 44.49609375 C-31.13254669 43.53840088 -31.13569885 42.58070801 -31.13894653 41.59399414 C-31.1369223 40.55235107 -31.13489807 39.51070801 -31.1328125 38.4375 C-31.13376923 37.37587646 -31.13472595 36.31425293 -31.13571167 35.22045898 C-31.13639364 32.97086528 -31.13453819 30.72126963 -31.13037109 28.47167969 C-31.1250231 25.01492929 -31.13031554 21.55830883 -31.13671875 18.1015625 C-31.13605797 15.92187471 -31.13477682 13.742187 -31.1328125 11.5625 C-31.13483673 10.52085693 -31.13686096 9.47921387 -31.13894653 8.40600586 C-31.13579437 7.44831299 -31.13264221 6.49062012 -31.12939453 5.50390625 C-31.12859894 4.65642822 -31.12780334 3.8089502 -31.12698364 2.93579102 C-31 1 -31 1 -30 0 C-27.64686445 -0.07271741 -25.29166332 -0.08370868 -22.9375 -0.0625 C-21.64714844 -0.05347656 -20.35679687 -0.04445313 -19.02734375 -0.03515625 C-18.02832031 -0.02355469 -17.02929688 -0.01195312 -16 0 C-15.34 1.65 -14.68 3.3 -14 5 C-13.071875 4.195625 -12.14375 3.39125 -11.1875 2.5625 C-7.40709549 -0.71385057 -4.86677745 -1.28073091 0 0 Z " fill="#FDFDFE" transform="translate(701,809)"/>
<path d="M0 0 C2.2770193 1.83913097 2.72651973 3.53258669 3.625 6.3125 C3.890625 9.50390625 3.890625 9.50390625 3.875 12.875 C3.88015625 13.99003906 3.8853125 15.10507812 3.890625 16.25390625 C3.63430847 19.20531573 3.22304228 20.85529521 1.625 23.3125 C-1.81202931 25.85844764 -5.22546112 25.67649464 -9.375 25.3125 C-13.1993472 23.61279013 -14.85907465 22.17243328 -16.375 18.3125 C-17.01172964 12.99654789 -17.52914912 7.27044884 -14.5 2.625 C-10.53512713 -1.68971459 -5.39770151 -1.56249254 0 0 Z " fill="#0000FF" transform="translate(380.375,821.6875)"/>
<path d="M0 0 C3.15954305 2.54137159 4.71540886 4.14622659 6 8 C6.53642018 13.99346396 6.46993814 18.8593509 3 24 C-0.7373856 26.4915904 -2.57331583 26.45793285 -7 26 C-10.38939556 23.86320715 -11.72582557 22.8225233 -13 19 C-13.51017442 12.75036341 -13.6937874 7.33547069 -10 2 C-6.24952518 -0.50031654 -4.44143734 -0.53603554 0 0 Z " fill="#0000FF" transform="translate(579,821)"/>
<path d="M0 0 C1.9375 1.1875 1.9375 1.1875 3 3 C3.33 4.65 3.66 6.3 4 8 C-1.28 8 -6.56 8 -12 8 C-11 3 -11 3 -9.9375 1.1875 C-6.79236885 -0.74016103 -3.58233192 -0.54595038 0 0 Z " fill="#0000FF" transform="translate(526,820)"/>
</svg>
